<svg width="30" height="30" viewBox="0 0 30 30" fill="none" xmlns="http://www.w3.org/2000/svg">
<mask id="path-1-inside-1_15_105" fill="white">
<path d="M25.2227 2C25.9864 2.0001 26.6402 2.27201 27.1846 2.81543C27.728 3.35977 27.9999 4.01364 28 4.77734V24.2227C27.9999 24.9864 27.728 25.6402 27.1846 26.1846C26.6402 26.728 25.9864 26.9999 25.2227 27H5.77734C5.01364 26.9999 4.35977 26.728 3.81543 26.1846C3.27201 25.6402 3.0001 24.9864 3 24.2227V4.77734C3.0001 4.01364 3.27201 3.35977 3.81543 2.81543C4.35977 2.27201 5.01364 2.0001 5.77734 2H25.2227Z"/>
</mask>
<path d="M25.2227 2C25.9864 2.0001 26.6402 2.27201 27.1846 2.81543C27.728 3.35977 27.9999 4.01364 28 4.77734V24.2227C27.9999 24.9864 27.728 25.6402 27.1846 26.1846C26.6402 26.728 25.9864 26.9999 25.2227 27H5.77734C5.01364 26.9999 4.35977 26.728 3.81543 26.1846C3.27201 25.6402 3.0001 24.9864 3 24.2227V4.77734C3.0001 4.01364 3.27201 3.35977 3.81543 2.81543C4.35977 2.27201 5.01364 2.0001 5.77734 2H25.2227Z" fill="#FFFCF9"/>
<path d="M25.2227 2L25.2228 1H25.2227V2ZM27.1846 2.81543L27.8923 2.10892L27.8911 2.10772L27.1846 2.81543ZM28 4.77734H29V4.77721L28 4.77734ZM28 24.2227L29 24.2228V24.2227H28ZM27.1846 26.1846L27.8911 26.8923L27.8923 26.8911L27.1846 26.1846ZM25.2227 27V28H25.2228L25.2227 27ZM5.77734 27L5.77721 28H5.77734V27ZM3.81543 26.1846L3.10772 26.8911L3.10893 26.8923L3.81543 26.1846ZM3 24.2227H2V24.2228L3 24.2227ZM3 4.77734L2 4.77721V4.77734H3ZM3.81543 2.81543L3.10892 2.10772L3.10772 2.10892L3.81543 2.81543ZM5.77734 2V1H5.77721L5.77734 2ZM25.2227 2L25.2225 3C25.719 3.00007 26.1195 3.16521 26.4781 3.52314L27.1846 2.81543L27.8911 2.10772C27.1609 1.37882 26.2537 1.00014 25.2228 1L25.2227 2ZM27.1846 2.81543L26.4769 3.52193C26.8348 3.88047 26.9999 4.28097 27 4.77748L28 4.77734L29 4.77721C28.9999 3.74631 28.6212 2.83907 27.8923 2.10893L27.1846 2.81543ZM28 4.77734H27V24.2227H28H29V4.77734H28ZM28 24.2227L27 24.2225C26.9999 24.719 26.8348 25.1195 26.4769 25.4781L27.1846 26.1846L27.8923 26.8911C28.6212 26.1609 28.9999 25.2537 29 24.2228L28 24.2227ZM27.1846 26.1846L26.4781 25.4769C26.1195 25.8348 25.719 25.9999 25.2225 26L25.2227 27L25.2228 28C26.2537 27.9999 27.1609 27.6212 27.8911 26.8923L27.1846 26.1846ZM25.2227 27V26H5.77734V27V28H25.2227V27ZM5.77734 27L5.77748 26C5.28097 25.9999 4.88047 25.8348 4.52193 25.4769L3.81543 26.1846L3.10893 26.8923C3.83907 27.6212 4.74631 27.9999 5.77721 28L5.77734 27ZM3.81543 26.1846L4.52314 25.4781C4.16521 25.1195 4.00007 24.719 4 24.2225L3 24.2227L2 24.2228C2.00014 25.2537 2.37882 26.1609 3.10772 26.8911L3.81543 26.1846ZM3 24.2227H4V4.77734H3H2V24.2227H3ZM3 4.77734L4 4.77748C4.00007 4.28097 4.16521 3.88047 4.52314 3.52193L3.81543 2.81543L3.10772 2.10892C2.37882 2.83907 2.00014 3.74631 2 4.77721L3 4.77734ZM3.81543 2.81543L4.52193 3.52314C4.88047 3.16521 5.28097 3.00007 5.77748 3L5.77734 2L5.77721 1C4.74631 1.00014 3.83907 1.37882 3.10892 2.10772L3.81543 2.81543ZM5.77734 2V3H25.2227V2V1H5.77734V2Z" fill="#D5CDC2" mask="url(#path-1-inside-1_15_105)"/>
<path d="M14.4153 20.9021C14.2371 20.9674 14.0461 21 13.8425 21C13.6388 21 13.4479 20.9674 13.2697 20.9021C13.0915 20.8358 12.926 20.7237 12.7733 20.5658L8.42005 16.0658C8.14001 15.7763 8 15.4079 8 14.9605C8 14.5132 8.14001 14.1447 8.42005 13.8553C8.72554 13.5395 9.08194 13.3816 9.48926 13.3816C9.89658 13.3816 10.2403 13.5263 10.5203 13.8158L13.8425 17.25L21.4033 9.43421C21.6834 9.14474 22.0398 9 22.4726 9C22.9053 9 23.2617 9.14474 23.5418 9.43421C23.8473 9.75 24 10.1184 24 10.5395C24 10.9605 23.86 11.3158 23.58 11.6053L14.9117 20.5658C14.7589 20.7237 14.5935 20.8358 14.4153 20.9021Z" fill="#EBE6E2"/>
</svg>
